<svg width="174" height="28" viewBox="0 0 174 28" fill="none" xmlns="http://www.w3.org/2000/svg">
<path d="M6.17221 20.6223C5.16955 20.6223 4.27107 20.4596 3.47675 20.134C2.68244 19.8085 2.04438 19.3267 1.56258 18.6886C1.09381 18.0506 0.8464 17.2823 0.820357 16.3838H4.37524C4.42732 16.8917 4.60311 17.2823 4.90261 17.5557C5.20211 17.8162 5.59275 17.9464 6.07455 17.9464C6.56937 17.9464 6.96001 17.8357 7.24649 17.6143C7.53296 17.38 7.6762 17.0609 7.6762 16.6573C7.6762 16.3187 7.559 16.0387 7.32462 15.8174C7.10325 15.596 6.82329 15.4137 6.48473 15.2705C6.15919 15.1272 5.69041 14.9645 5.0784 14.7822C4.19294 14.5087 3.47024 14.2353 2.91031 13.9618C2.35039 13.6884 1.86859 13.2847 1.46492 12.7508C1.06126 12.2169 0.859422 11.5203 0.859422 10.6608C0.859422 9.38473 1.32169 8.38858 2.24622 7.6724C3.17075 6.94319 4.37524 6.57859 5.85969 6.57859C7.37019 6.57859 8.58771 6.94319 9.51224 7.6724C10.4368 8.38858 10.9316 9.39124 10.9967 10.6804H7.38321C7.35717 10.2376 7.1944 9.89257 6.89491 9.64516C6.59541 9.38473 6.21127 9.25452 5.7425 9.25452C5.33883 9.25452 5.01329 9.3652 4.76588 9.58657C4.51847 9.79491 4.39477 10.1009 4.39477 10.5046C4.39477 10.9473 4.60311 11.2924 5.0198 11.5398C5.43649 11.7872 6.08757 12.0541 6.97304 12.3406C7.8585 12.6401 8.57468 12.9266 9.12159 13.2C9.68152 13.4735 10.1633 13.8707 10.567 14.3915C10.9706 14.9124 11.1725 15.583 11.1725 16.4033C11.1725 17.1846 10.9706 17.8943 10.567 18.5324C10.1763 19.1704 9.60339 19.6783 8.84814 20.0559C8.09289 20.4335 7.20091 20.6223 6.17221 20.6223ZM20.0838 20.4856L16.7633 15.915V20.4856H13.4233V6.03169H16.7633V14.0204L20.0643 9.58657H24.1856L19.6541 15.0556L24.2246 20.4856H20.0838ZM27.3725 8.45369C26.7866 8.45369 26.3048 8.28441 25.9272 7.94585C25.5626 7.59427 25.3803 7.16456 25.3803 6.65672C25.3803 6.13586 25.5626 5.70615 25.9272 5.36759C26.3048 5.016 26.7866 4.84021 27.3725 4.84021C27.9455 4.84021 28.4143 5.016 28.7789 5.36759C29.1565 5.70615 29.3453 6.13586 29.3453 6.65672C29.3453 7.16456 29.1565 7.59427 28.7789 7.94585C28.4143 8.28441 27.9455 8.45369 27.3725 8.45369ZM29.0328 9.58657V20.4856H25.6928V9.58657H29.0328ZM34.9886 6.03169V20.4856H31.6486V6.03169H34.9886ZM40.9445 6.03169V20.4856H37.6044V6.03169H40.9445Z" fill="#F2994A"/>
<path d="M57.7098 23.4661C63.5866 23.4661 68.3504 18.7022 68.3504 12.8254C68.3504 6.94869 63.5866 2.18481 57.7098 2.18481C51.8331 2.18481 47.0692 6.94869 47.0692 12.8254C47.0692 18.7022 51.8331 23.4661 57.7098 23.4661Z" stroke="#F2994A" stroke-width="2.50368" stroke-linejoin="round"/>
<path d="M65.3597 20.4754L70.6707 25.7863M61.2506 8.65867C60.7861 8.19301 60.2342 7.82373 59.6265 7.57205C59.0189 7.32037 58.3675 7.19126 57.7097 7.19214C56.3265 7.19214 55.0746 7.75234 54.1689 8.65867H61.2506Z" stroke="#F2994A" stroke-width="2.50368" stroke-linecap="round" stroke-linejoin="round"/>
<path d="M80.9122 20.6223C79.9095 20.6223 79.0111 20.4596 78.2167 20.134C77.4224 19.8085 76.7844 19.3267 76.3026 18.6886C75.8338 18.0506 75.5864 17.2823 75.5603 16.3838H79.1152C79.1673 16.8917 79.3431 17.2823 79.6426 17.5557C79.9421 17.8162 80.3327 17.9464 80.8145 17.9464C81.3094 17.9464 81.7 17.8357 81.9865 17.6143C82.273 17.38 82.4162 17.0609 82.4162 16.6573C82.4162 16.3187 82.299 16.0387 82.0646 15.8174C81.8432 15.596 81.5633 15.4137 81.2247 15.2705C80.8992 15.1272 80.4304 14.9645 79.8184 14.7822C78.9329 14.5087 78.2102 14.2353 77.6503 13.9618C77.0904 13.6884 76.6086 13.2847 76.2049 12.7508C75.8012 12.2169 75.5994 11.5203 75.5994 10.6608C75.5994 9.38473 76.0617 8.38858 76.9862 7.6724C77.9107 6.94319 79.1152 6.57859 80.5997 6.57859C82.1102 6.57859 83.3277 6.94319 84.2522 7.6724C85.1768 8.38858 85.6716 9.39124 85.7367 10.6804H82.1232C82.0972 10.2376 81.9344 9.89257 81.6349 9.64516C81.3354 9.38473 80.9513 9.25452 80.4825 9.25452C80.0788 9.25452 79.7533 9.3652 79.5059 9.58657C79.2585 9.79491 79.1348 10.1009 79.1348 10.5046C79.1348 10.9473 79.3431 11.2924 79.7598 11.5398C80.1765 11.7872 80.8276 12.0541 81.713 12.3406C82.5985 12.6401 83.3147 12.9266 83.8616 13.2C84.4215 13.4735 84.9033 13.8707 85.307 14.3915C85.7106 14.9124 85.9125 15.583 85.9125 16.4033C85.9125 17.1846 85.7106 17.8943 85.307 18.5324C84.9163 19.1704 84.3434 19.6783 83.5881 20.0559C82.8329 20.4335 81.9409 20.6223 80.9122 20.6223ZM93.1245 20.6419C92.0567 20.6419 91.0931 20.414 90.2337 19.9582C89.3873 19.5025 88.7167 18.8514 88.2219 18.005C87.7401 17.1586 87.4992 16.169 87.4992 15.0361C87.4992 13.9162 87.7466 12.9331 88.2414 12.0867C88.7362 11.2273 89.4133 10.5697 90.2728 10.1139C91.1322 9.65818 92.0958 9.43031 93.1635 9.43031C94.2313 9.43031 95.1949 9.65818 96.0543 10.1139C96.9137 10.5697 97.5909 11.2273 98.0857 12.0867C98.5805 12.9331 98.8279 13.9162 98.8279 15.0361C98.8279 16.1559 98.574 17.1456 98.0661 18.005C97.5713 18.8514 96.8877 19.5025 96.0153 19.9582C95.1558 20.414 94.1922 20.6419 93.1245 20.6419ZM93.1245 17.7511C93.7625 17.7511 94.3029 17.5167 94.7457 17.0479C95.2014 16.5791 95.4293 15.9085 95.4293 15.0361C95.4293 14.1636 95.2079 13.493 94.7652 13.0243C94.3355 12.5555 93.8016 12.3211 93.1635 12.3211C92.5125 12.3211 91.9721 12.5555 91.5424 13.0243C91.1126 13.48 90.8978 14.1506 90.8978 15.0361C90.8978 15.9085 91.1061 16.5791 91.5228 17.0479C91.9525 17.5167 92.4864 17.7511 93.1245 17.7511ZM104.135 6.03169V20.4856H100.795V6.03169H104.135ZM108.431 8.45369C107.845 8.45369 107.363 8.28441 106.985 7.94585C106.621 7.59427 106.438 7.16456 106.438 6.65672C106.438 6.13586 106.621 5.70615 106.985 5.36759C107.363 5.016 107.845 4.84021 108.431 4.84021C109.004 4.84021 109.473 5.016 109.837 5.36759C110.215 5.70615 110.404 6.13586 110.404 6.65672C110.404 7.16456 110.215 7.59427 109.837 7.94585C109.473 8.28441 109.004 8.45369 108.431 8.45369ZM110.091 9.58657V20.4856H106.751V9.58657H110.091ZM112.043 15.0165C112.043 13.8967 112.251 12.9136 112.668 12.0672C113.097 11.2208 113.677 10.5697 114.406 10.1139C115.135 9.65818 115.949 9.43031 116.848 9.43031C117.564 9.43031 118.215 9.58005 118.801 9.87955C119.4 10.179 119.869 10.5827 120.207 11.0906V6.03169H123.547V20.4856H120.207V18.923C119.895 19.4439 119.445 19.8606 118.86 20.1731C118.287 20.4856 117.616 20.6419 116.848 20.6419C115.949 20.6419 115.135 20.414 114.406 19.9582C113.677 19.4894 113.097 18.8319 112.668 17.9855C112.251 17.126 112.043 16.1364 112.043 15.0165ZM120.207 15.0361C120.207 14.2027 119.973 13.5451 119.504 13.0633C119.048 12.5815 118.488 12.3406 117.824 12.3406C117.16 12.3406 116.594 12.5815 116.125 13.0633C115.669 13.5321 115.441 14.1832 115.441 15.0165C115.441 15.8499 115.669 16.514 116.125 17.0088C116.594 17.4906 117.16 17.7315 117.824 17.7315C118.488 17.7315 119.048 17.4906 119.504 17.0088C119.973 16.527 120.207 15.8695 120.207 15.0361ZM125.495 15.0165C125.495 13.8967 125.703 12.9136 126.12 12.0672C126.55 11.2208 127.129 10.5697 127.858 10.1139C128.587 9.65818 129.401 9.43031 130.3 9.43031C131.068 9.43031 131.739 9.58657 132.312 9.89908C132.898 10.2116 133.347 10.6218 133.659 11.1296V9.58657H136.999V20.4856H133.659V18.9425C133.334 19.4504 132.878 19.8606 132.292 20.1731C131.719 20.4856 131.049 20.6419 130.28 20.6419C129.395 20.6419 128.587 20.414 127.858 19.9582C127.129 19.4894 126.55 18.8319 126.12 17.9855C125.703 17.126 125.495 16.1364 125.495 15.0165ZM133.659 15.0361C133.659 14.2027 133.425 13.5451 132.956 13.0633C132.5 12.5815 131.941 12.3406 131.276 12.3406C130.612 12.3406 130.046 12.5815 129.577 13.0633C129.121 13.5321 128.893 14.1832 128.893 15.0165C128.893 15.8499 129.121 16.514 129.577 17.0088C130.046 17.4906 130.612 17.7315 131.276 17.7315C131.941 17.7315 132.5 17.4906 132.956 17.0088C133.425 16.527 133.659 15.8695 133.659 15.0361ZM142.951 11.4031C143.342 10.8041 143.83 10.3353 144.416 9.99674C145.002 9.64516 145.653 9.46937 146.369 9.46937V13.0047H145.451C144.618 13.0047 143.993 13.187 143.576 13.5516C143.159 13.9032 142.951 14.5282 142.951 15.4267V20.4856H139.611V9.58657H142.951V11.4031ZM149.841 8.45369C149.255 8.45369 148.773 8.28441 148.395 7.94585C148.031 7.59427 147.849 7.16456 147.849 6.65672C147.849 6.13586 148.031 5.70615 148.395 5.36759C148.773 5.016 149.255 4.84021 149.841 4.84021C150.414 4.84021 150.883 5.016 151.247 5.36759C151.625 5.70615 151.814 6.13586 151.814 6.65672C151.814 7.16456 151.625 7.59427 151.247 7.94585C150.883 8.28441 150.414 8.45369 149.841 8.45369ZM151.501 9.58657V20.4856H148.161V9.58657H151.501ZM160.191 17.6534V20.4856H158.492C157.281 20.4856 156.337 20.1926 155.66 19.6066C154.983 19.0077 154.644 18.0375 154.644 16.6963V12.3602H153.316V9.58657H154.644V6.93017H157.984V9.58657H160.172V12.3602H157.984V16.7354C157.984 17.0609 158.062 17.2953 158.219 17.4386C158.375 17.5818 158.635 17.6534 159 17.6534H160.191ZM173.381 9.58657L166.544 25.6617H162.95L165.45 20.1145L161.017 9.58657H164.747L167.267 16.4033L169.767 9.58657H173.381Z" fill="#F2994A"/>
</svg>
